<svg width="100" height="100" viewBox="0 0 100 100" xmlns="http://www.w3.org/2000/svg">
  <!-- Background circle for the shutter -->
  <circle cx="50" cy="50" r="40" fill="black"/>

  <!-- Shutter blades with joyful colors -->
  <path d="M50,10 L80,30 A40,40 0 0,1 20,50 z" fill="#FF6B6B" transform="rotate(0, 50, 50)"/>
  <path d="M50,10 L80,30 A40,40 0 0,1 20,50 z" fill="#4ECDC4" transform="rotate(45, 50, 50)"/>
  <path d="M50,10 L80,30 A40,40 0 0,1 20,50 z" fill="#45B7D1" transform="rotate(90, 50, 50)"/>
  <path d="M50,10 L80,30 A40,40 0 0,1 20,50 z" fill="#FFA07A" transform="rotate(135, 50, 50)"/>
  <path d="M50,10 L80,30 A40,40 0 0,1 20,50 z" fill="#98D8C8" transform="rotate(180, 50, 50)"/>
  <path d="M50,10 L80,30 A40,40 0 0,1 20,50 z" fill="#F7DC6F" transform="rotate(225, 50, 50)"/>
  <path d="M50,10 L80,30 A40,40 0 0,1 20,50 z" fill="#BB8FCE" transform="rotate(270, 50, 50)"/>
  <path d="M50,10 L80,30 A40,40 0 0,1 20,50 z" fill="#F1948A" transform="rotate(315, 50, 50)"/>

  <!-- Two bits in the middle -->
  <circle cx="40" cy="50" r="5" fill="white"/>
  <circle cx="60" cy="50" r="5" fill="white"/>
</svg>
